<svg width="800" height="800" viewBox="0 0 800 800" fill="none" xmlns="http://www.w3.org/2000/svg">
<path d="M114.22 432.563C115.365 456.149 138.951 445.158 149.484 437.83C159.56 430.731 162.537 436.685 163.453 422.946C164.14 413.786 165.056 404.855 164.598 395.696C149.255 394.322 132.768 397.986 120.174 407.145C113.533 411.725 101.625 426.838 114.22 432.563Z" fill="#F6D2A2"/>
<path d="M584.338 722.465C602.428 733.686 635.631 767.576 608.382 784.064C582.277 807.879 567.621 757.73 544.722 750.86C554.569 737.35 566.934 724.984 584.338 722.465Z" fill="#F6D2A2"/>
<path d="M260.545 760.707C239.249 763.913 227.341 783.148 209.48 792.994C192.764 802.841 186.352 789.788 184.978 787.041C182.459 785.896 182.688 788.186 178.566 784.064C162.995 759.562 194.596 741.7 211.083 729.564C233.982 724.984 248.408 744.906 260.545 760.707Z" fill="#F6D2A2"/>
<path d="M684.864 429.586C683.719 453.172 660.133 442.181 649.6 434.853C639.524 427.754 636.547 433.708 635.631 419.969C634.944 410.809 634.028 401.878 634.486 392.719C649.829 391.345 666.316 395.009 678.911 404.168C685.322 408.748 697.459 423.862 684.864 429.586Z" fill="#F6D2A2"/>
<path d="M622.35 141.974C704.1 113.121 640.211 1.14496 568.995 50.6069C522.281 10.5336 457.935 3.20587 390.382 3.20587C324.204 8.47265 261.232 20.6092 217.266 59.0796C146.279 13.2815 80.7872 123.197 164.14 150.905C140.783 241.585 167.346 334.097 163.682 426.38C160.247 509.275 138.493 620.335 184.52 694.757C223.677 758.417 307.946 781.087 377.33 783.606C465.949 786.812 573.346 765.057 616.396 679.186C657.614 597.436 646.165 495.536 640.898 407.374C635.631 318.297 645.478 227.846 622.35 141.974Z" fill="#FF0000"/>
<path d="M691.047 415.618C688.757 410.809 684.406 405.313 680.285 402.336C669.751 394.78 656.24 390.658 642.272 390.2C641.814 376.003 641.356 360.431 641.356 340.738V322.877C641.127 266.545 640.44 241.814 637.234 210.9C634.715 186.627 630.823 164.186 625.327 143.119C643.875 136.02 656.011 124.342 660.82 109.229C665.4 95.2601 663.11 79.4597 655.325 65.4913C647.31 51.7519 634.486 41.4473 619.602 37.3255C603.573 32.9747 586.169 36.1805 569.453 47.4011C554.569 34.8066 537.394 25.189 518.159 17.8613C484.04 5.26681 444.424 0.458008 390.611 0.458008V2.74791L390.382 0.458008C332.906 5.03782 290.314 13.9685 255.049 31.1427C240.852 38.0125 228.257 46.2561 217.266 55.8737C200.32 45.3402 182.688 42.8213 166.43 47.8591C151.316 52.4389 138.264 63.2014 130.478 77.1698C122.692 91.1383 120.861 107.168 126.127 120.907C131.394 134.646 143.531 145.409 161.621 152.05C155.896 175.178 152.919 199.68 152.461 226.701C152.003 253.035 153.148 274.102 157.27 321.732C160.247 357.225 161.392 373.484 161.85 393.177C146.279 392.49 130.707 396.612 119.029 405.084C114.907 408.061 110.327 413.328 108.266 418.366C105.289 424.778 106.434 430.502 112.388 433.937C113.304 444.929 119.487 449.966 128.875 449.051C135.745 448.364 143.989 444.7 151.087 439.662C152.69 438.517 154.293 437.601 155.896 436.914C156.583 436.685 157.041 436.456 157.728 436.227C157.728 436.227 159.102 435.769 159.56 435.54C160.247 435.311 160.934 435.082 161.392 434.624C160.934 445.387 160.018 456.607 157.957 482.254C155.667 511.107 154.522 526.907 154.064 544.54C152.003 610.031 159.789 657.661 183.146 695.444C190.474 707.352 199.404 717.885 209.938 727.503C207.877 728.877 199.175 735.289 196.427 737.35C186.81 744.677 180.169 750.86 176.276 757.73C171.238 766.66 171.238 775.591 176.963 784.98L177.192 785.209L177.421 785.438C179.94 787.957 181.314 788.644 183.146 788.644H183.375H183.833C184.062 789.102 184.291 789.331 184.52 789.788C185.207 790.933 185.894 791.849 186.581 792.765C192.306 799.406 200.32 801.009 211.083 794.597C216.808 791.62 220.929 788.186 229.631 780.858C229.86 780.629 229.86 780.629 230.089 780.4C244.057 768.492 250.927 764.142 261.232 762.539L264.896 761.852C266.27 762.539 267.643 762.997 269.246 763.684C301.763 776.736 339.547 783.835 377.788 785.209C427.25 787.041 474.88 780.858 515.182 766.202C525.945 762.31 536.02 757.73 545.638 752.692C551.592 754.982 556.63 759.791 566.247 771.011C566.705 771.469 566.705 771.469 566.934 771.927C567.392 772.385 567.392 772.614 567.621 772.843C568.079 773.53 568.766 773.988 569.224 774.675C576.781 783.606 581.819 787.957 587.543 790.475C595.1 793.681 602.428 792.078 609.984 785.209C623.266 776.965 624.182 764.142 615.48 749.486C609.297 739.182 598.535 728.419 588.459 721.549C600.367 709.871 610.671 695.902 618.686 680.102C640.669 636.136 649.142 584.842 648.684 518.893C648.455 495.536 647.539 475.155 645.02 436.227V435.082C646.165 435.54 647.31 436.227 648.455 437.143C655.554 441.952 663.797 445.845 670.667 446.532C680.056 447.448 686.238 442.41 687.154 431.418C692.879 427.754 694.024 422.03 691.047 415.618ZM618.228 42.1343C631.967 45.7981 643.875 55.4157 651.203 68.2392C658.53 81.0627 660.591 95.4891 656.469 108.313C652.119 121.823 641.127 132.586 623.953 138.997C620.518 126.632 616.396 114.495 611.816 102.817C618.457 97.092 621.663 89.9933 616.396 79.9177C611.129 69.8421 601.97 68.6972 592.581 71.6741C586.627 63.8884 579.987 57.0187 573.117 50.6069C588.23 40.9893 603.802 38.2414 618.228 42.1343ZM130.02 119.533C125.211 107.168 126.814 92.5122 134.142 79.6887C141.47 66.8653 153.377 56.7897 167.575 52.6679C182.23 48.317 198.03 50.3779 213.602 59.5376C204.671 67.5522 196.656 76.7119 189.787 86.7874C177.879 80.6047 165.743 79.4597 158.873 92.0542C151.774 105.565 160.018 114.037 171.696 120.449C170.094 124.342 168.491 128.464 167.117 132.586C165.514 137.623 163.911 142.89 162.537 148.157C145.821 141.745 134.829 131.899 130.02 119.533ZM157.728 431.647C157.499 431.647 156.125 432.105 156.125 432.334C155.438 432.563 154.751 432.792 154.064 433.25C152.232 433.937 150.4 435.082 148.568 436.456C142.157 441.036 134.371 444.471 128.417 444.929C121.548 445.616 117.655 442.639 116.968 434.395C121.777 432.792 123.837 431.647 125.669 428.899L122.006 426.151C120.632 427.983 119.258 428.67 115.136 430.044C114.907 430.044 114.907 430.044 114.678 430.273C111.014 428.212 110.327 425.007 112.388 420.427C114.22 416.305 118.342 411.496 121.777 408.977C132.768 400.963 147.423 397.07 162.079 397.986C162.079 403.71 162.308 409.435 162.079 414.931C162.079 415.618 162.079 416.076 161.85 416.763C161.621 419.969 161.621 421.343 161.392 422.946C160.705 429.586 160.247 430.502 157.728 431.647ZM226.883 777.194C226.654 777.423 226.654 777.423 226.425 777.652C217.953 784.98 213.831 787.957 208.564 790.933C199.862 796.2 193.909 795.055 189.787 790.017C189.1 789.331 188.642 788.415 188.184 787.728C187.955 787.499 187.726 787.041 187.497 786.812C187.497 786.812 187.497 786.812 187.497 786.583C187.955 782.461 189.558 779.484 193.68 773.072C193.909 772.843 193.909 772.843 193.909 772.614C196.427 768.95 197.572 766.889 198.717 764.371L194.596 762.539C193.68 764.6 192.535 766.431 190.245 770.095C190.016 770.324 190.016 770.324 190.016 770.553C185.894 776.507 184.062 780.171 183.146 784.293H182.917C182.917 784.293 182.917 784.293 182.688 784.293H182.23C181.772 784.064 181.085 783.606 180.169 782.69C171.238 768.492 178.337 756.356 198.488 741.242C201.007 739.411 209.48 733.457 211.77 731.625C212.228 731.625 212.686 731.396 213.144 731.167C225.509 741.7 239.936 750.86 255.965 758.417C255.965 758.646 256.194 758.875 256.423 759.104C247.034 761.394 239.707 766.202 226.883 777.194ZM611.358 752.234C618.457 764.142 618.228 773.759 609.297 780.4C608.61 779.026 608.152 777.423 607.237 775.133C607.237 774.904 607.237 774.904 607.008 774.675C603.802 765.973 601.741 762.31 597.848 758.188L594.642 761.394C598.077 764.6 599.68 768.034 602.886 776.049C602.886 776.278 602.886 776.278 603.115 776.507C604.26 779.484 604.947 781.316 605.634 782.919C599.68 787.957 594.413 788.873 588.917 786.354C584.108 784.293 579.529 779.942 572.201 771.698C571.743 771.24 571.285 770.553 570.827 769.866C570.598 769.637 570.369 769.408 570.14 768.95C569.682 768.492 569.682 768.492 569.453 768.034C560.98 758.188 555.943 752.921 550.447 749.944C563.27 742.616 574.72 734.373 585.024 724.755C594.642 731.854 605.405 742.387 611.358 752.234ZM614.564 678.041C594.871 717.656 560.064 745.593 513.35 762.539C473.506 776.965 426.334 782.919 377.559 781.087C293.519 778.11 220.7 748.799 186.581 693.383C163.682 656.516 156.125 609.573 158.186 544.998C158.873 527.365 159.789 511.565 162.079 482.712C164.598 450.195 165.285 440.807 165.972 426.151C166.43 415.618 166.43 404.855 166.201 393.406C165.743 373.255 164.598 357.225 161.621 321.274C157.499 273.644 156.354 252.806 156.812 226.701C157.499 192.352 162.079 162.125 171.696 133.502C187.268 87.0164 215.892 55.6447 257.11 35.2646C291.688 18.3193 333.593 9.61763 390.611 5.03782C443.966 5.03782 482.895 9.84662 516.556 22.2121C556.859 37.0965 586.856 63.2014 607.465 103.275C620.747 135.791 628.533 170.827 632.654 211.129C635.86 241.814 636.547 266.545 636.776 322.648V340.509C637.005 368.217 637.463 387.681 638.608 407.145C639.066 414.702 639.295 417.908 640.44 435.998C642.959 474.926 643.875 495.078 644.104 518.435C644.562 584.155 636.318 634.762 614.564 678.041ZM684.635 427.296C684.406 427.296 684.177 427.067 683.948 427.067C679.827 425.693 678.453 424.778 677.079 423.175L673.415 425.922C675.476 428.67 677.537 429.815 682.116 431.418C681.2 439.662 677.308 442.639 670.667 441.952C664.713 441.494 656.927 437.83 650.516 433.479C648.684 432.105 646.852 431.189 645.02 430.273C644.791 430.273 644.562 430.044 644.333 430.044C643.417 417.45 643.417 414.244 642.959 407.603C642.73 403.481 642.501 399.36 642.272 395.238C655.096 395.467 667.69 399.36 677.308 406.458C680.742 408.977 684.864 413.786 686.696 417.908C688.986 421.801 688.528 425.236 684.635 427.296Z" fill="black"/>
<path d="M425.099 239.363C425.328 251.042 427.617 263.865 425.556 276.231C422.351 282.184 416.397 282.871 411.13 285.161C403.802 284.016 397.62 279.208 394.643 272.338C392.811 258.369 395.101 245.088 395.788 231.12C395.788 230.662 404.489 231.349 412.275 233.638C418.916 235.699 425.099 239.134 425.099 239.363Z" fill="white"/>
<path d="M360.294 240.279C353.882 264.552 368.767 304.168 393.269 271.651C391.437 257.911 393.498 244.63 394.185 231.12C394.414 229.975 360.523 238.676 360.294 240.279Z" fill="white"/>
<path d="M427.846 250.126C427.388 243.256 427.159 240.508 427.159 237.073V235.47L425.556 235.012L396.704 226.082V224.479L393.727 225.166H393.498V225.395L360.981 233.638L359.836 233.867L359.378 235.012C354.34 247.149 355.485 265.468 361.897 276.689C369.225 289.512 381.132 289.741 393.269 275.086C396.704 281.726 403.115 286.306 410.443 287.451H411.13L411.817 287.222C412.733 286.764 413.649 286.535 415.252 285.848C415.481 285.848 415.481 285.848 415.71 285.619C422.351 283.329 425.098 281.497 427.388 277.147L427.617 276.918V276.46C428.304 272.338 428.533 267.987 428.533 263.178C428.533 259.743 428.304 256.538 427.846 250.126ZM391.208 241.653C390.979 245.775 390.75 247.378 390.521 249.668C390.063 258.14 390.063 264.552 390.75 270.964C379.987 284.703 371.515 284.703 365.79 274.399C360.294 264.781 359.149 248.523 363.271 237.76L392.124 230.433C391.895 233.409 391.666 236.386 391.208 241.653ZM423.267 275.544C421.664 278.292 419.603 279.666 414.107 281.497C413.878 281.497 413.878 281.497 413.649 281.726C412.275 282.184 411.359 282.642 410.672 282.871C404.489 281.726 399.223 277.605 396.704 271.88C396.017 265.697 396.017 259.285 396.475 250.813C396.704 248.523 396.704 246.92 397.162 242.798C397.62 237.531 397.849 234.325 397.849 231.349L422.809 238.905C422.809 241.882 423.038 244.63 423.496 250.584C423.954 256.767 424.183 259.972 424.183 263.636C424.183 267.987 423.954 271.88 423.267 275.544Z" fill="black"/>
<path d="M222.452 139.596C243.519 221.575 374.731 200.507 369.693 118.3C363.739 19.8339 202.301 38.8401 222.452 139.596Z" fill="white"/>
<path d="M371.983 118.071C370.609 94.2558 360.075 75.7075 342.672 64.029C327.101 53.4955 306.491 49.3736 286.111 51.8925C265.731 54.6404 246.954 63.8 234.588 78.2264C220.849 94.2558 215.582 115.323 220.391 139.596C241.916 223.864 377.021 203.484 371.983 118.071ZM224.513 139.138C219.933 116.01 224.971 96.3167 237.794 81.4323C249.473 67.9219 267.105 58.9912 286.569 56.4723C306.033 53.9534 325.498 57.8463 340.153 67.9219C356.411 78.9134 366.258 96.0877 367.632 118.758C372.441 198.675 244.893 217.911 224.513 139.138Z" fill="black"/>
<path d="M258.632 150.129C270.9 150.129 280.844 139.365 280.844 126.085C280.844 112.806 270.9 102.041 258.632 102.041C246.365 102.041 236.42 112.806 236.42 126.085C236.42 139.365 246.365 150.129 258.632 150.129Z" fill="black"/>
<path d="M268.708 137.764C271.617 137.764 273.975 134.996 273.975 131.581C273.975 128.167 271.617 125.398 268.708 125.398C265.799 125.398 263.441 128.167 263.441 131.581C263.441 134.996 265.799 137.764 268.708 137.764Z" fill="white"/>
<path d="M406.467 124.269C422.725 218.384 576.607 193.424 554.395 98.6222C534.473 13.4377 400.971 37.0237 406.467 124.269Z" fill="white"/>
<path d="M556.456 98.1642C536.076 10.4608 398.681 34.5048 404.177 124.498V124.727C411.734 169.151 451.349 191.821 495.086 184.494C515.008 181.059 532.87 171.441 544.548 157.244C557.372 141.443 561.952 121.063 556.456 98.1642ZM541.113 154.496C530.122 167.777 513.406 176.937 494.399 180.143C452.952 187.013 415.856 165.716 408.528 124.04C403.49 39.3137 533.099 16.6436 552.334 99.0802C557.372 120.834 553.25 139.841 541.113 154.496Z" fill="black"/>
<path d="M444.25 144.191C456.265 144.191 466.004 133.426 466.004 120.147C466.004 106.868 456.265 96.1033 444.25 96.1033C432.236 96.1033 422.496 106.868 422.496 120.147C422.496 133.426 432.236 144.191 444.25 144.191Z" fill="black"/>
<path d="M454.326 131.826C457.108 131.826 459.364 129.058 459.364 125.643C459.364 122.228 457.108 119.46 454.326 119.46C451.544 119.46 449.288 122.228 449.288 125.643C449.288 129.058 451.544 131.826 454.326 131.826Z" fill="white"/>
<path d="M365.022 190.809C346.932 192.412 332.276 213.708 341.665 230.654C354.031 253.095 381.738 228.593 398.913 230.883C418.835 231.341 435.093 251.95 450.894 234.547C468.526 215.311 443.337 196.534 423.415 188.29L365.022 190.809Z" fill="#F6D2A2"/>
<path d="M453.183 206.152C447.001 198.366 436.238 191.267 424.56 186.459L424.102 186.23H423.644L365.022 188.519C344.642 190.351 329.987 213.937 339.833 231.799C343.726 238.668 348.993 242.103 356.091 242.561C361.358 242.79 366.854 241.645 375.327 238.668C376.014 238.439 376.93 238.21 378.075 237.752C389.524 233.86 394.104 232.715 398.684 233.402H398.913C404.409 233.402 408.988 235.005 417.69 238.439C427.308 242.332 430.284 243.477 435.093 243.935C441.734 244.393 447.459 242.103 452.726 236.378C461.656 226.532 461.198 215.998 453.183 206.152ZM449.291 233.173C444.94 237.981 440.589 239.584 435.322 239.355C431.2 239.126 428.453 237.981 419.293 234.318C410.133 230.425 405.095 229.051 399.142 228.822C393.417 228.135 388.608 229.28 376.472 233.402C375.327 233.86 374.411 234.089 373.724 234.318C357.007 240.042 348.993 239.584 343.497 229.509C335.253 214.624 347.848 194.473 365.022 192.87L422.957 190.58C433.948 195.16 443.795 201.801 449.52 208.9C456.389 217.143 456.618 225.387 449.291 233.173Z" fill="#231F20"/>
<path d="M427.995 180.963C420.896 154.858 361.358 158.751 362.732 189.893C365.709 213.021 434.864 206.839 427.995 180.963Z" fill="black"/>
<path fill-rule="evenodd" clip-rule="evenodd" d="M296.944 493.181V479.367H352.644V493.181H296.944ZM254 458.758L290.205 437.48L254 416.871L261.798 404.226L305.356 431.186V443.774L261.965 470.733L254 458.758Z" fill="white" stroke="#282828" stroke-width="0.976199" stroke-linejoin="round"/>
<path fill-rule="evenodd" clip-rule="evenodd" d="M546.717 430.982C546.535 433.382 546.263 435.758 545.903 438.11L542.916 455.76C542.373 458.838 541.491 461.917 540.269 464.993C539.046 468.071 537.303 470.854 535.041 473.342C532.778 475.833 530.062 477.711 526.895 478.977C523.726 480.243 520.558 480.878 517.391 480.878C515.579 480.878 513.77 480.628 511.961 480.131C510.149 479.635 508.61 478.796 507.344 477.619C506.075 476.444 505.036 475.04 504.221 473.411C503.406 471.781 502.773 470.107 502.321 468.387L495.804 507.624H476.796L493.224 407.833H512.368L510.874 416.93C511.961 415.392 513.203 413.942 514.608 412.586C516.01 411.228 517.548 410.096 519.224 409.191C520.898 408.287 522.663 407.653 524.519 407.29C526.373 406.929 528.206 406.747 530.017 406.747C532.37 406.747 534.61 407.154 536.739 407.969C538.864 408.783 540.629 410.029 542.033 411.703C543.435 413.378 544.498 415.279 545.224 417.405C545.947 419.533 546.422 421.729 546.65 423.989C546.874 426.253 546.898 428.584 546.717 430.982ZM526.556 426.637C525.966 425.326 525.015 424.308 523.704 423.582C522.391 422.859 520.966 422.496 519.428 422.496C518.07 422.496 516.733 422.7 515.422 423.107C514.109 423.515 512.932 424.194 511.892 425.144C510.851 426.094 510.059 427.204 509.516 428.47C508.974 429.739 508.566 431.005 508.294 432.272L505.444 449.922C505.261 451.008 505.104 452.118 504.968 453.248C504.832 454.382 504.809 455.467 504.9 456.507C504.99 457.548 505.149 458.59 505.375 459.63C505.6 460.671 505.986 461.622 506.529 462.481C507.073 463.342 507.84 463.998 508.838 464.449C509.833 464.903 510.874 465.128 511.961 465.128C513.498 465.128 515.015 464.836 516.509 464.246C518.002 463.658 519.313 462.776 520.446 461.599C521.576 460.423 522.436 459.087 523.026 457.593C523.614 456.1 524.044 454.629 524.315 453.181L527.167 435.53C527.438 433.993 527.551 432.454 527.506 430.914C527.46 429.376 527.143 427.951 526.556 426.637ZM473.809 464.042V479.792H426.289V464.042H442.581L453.85 395.75H441.631V380H475.574L461.59 464.042H473.809ZM396.555 479.792L398.049 470.559C397.051 472.188 395.83 473.66 394.383 474.972C392.934 476.284 391.373 477.394 389.699 478.298C388.023 479.204 386.257 479.859 384.404 480.266C382.548 480.674 380.715 480.878 378.905 480.878C376.55 480.878 374.31 480.47 372.185 479.655C370.056 478.841 368.291 477.598 366.89 475.922C365.485 474.248 364.422 472.324 363.698 470.152C362.973 467.98 362.498 465.763 362.273 463.499C362.046 461.237 362.023 458.93 362.205 456.575C362.385 454.222 362.702 451.87 363.156 449.515L366.007 431.865C366.55 428.698 367.432 425.575 368.655 422.496C369.876 419.42 371.642 416.658 373.95 414.215C376.257 411.77 378.973 409.917 382.096 408.648C385.219 407.381 388.362 406.747 391.532 406.747C393.433 406.747 395.266 406.998 397.031 407.494C398.796 407.993 400.333 408.83 401.646 410.005C402.957 411.183 404.022 412.586 404.837 414.215C405.652 415.844 406.239 417.519 406.602 419.238L413.12 380H432.127L415.699 479.792H396.555ZM404.091 431.05C404.044 429.964 403.887 428.901 403.615 427.859C403.344 426.82 402.937 425.89 402.393 425.076C401.85 424.262 401.08 423.629 400.085 423.175C399.089 422.723 398.049 422.496 396.962 422.496C395.422 422.496 393.908 422.792 392.414 423.378C390.921 423.969 389.608 424.851 388.477 426.027C387.344 427.204 386.485 428.517 385.897 429.964C385.308 431.413 384.924 432.906 384.743 434.445L381.756 452.094C381.485 453.635 381.371 455.172 381.416 456.711C381.461 458.251 381.778 459.676 382.367 460.987C382.955 462.3 383.905 463.319 385.219 464.042C386.53 464.767 387.955 465.128 389.495 465.128C390.852 465.128 392.187 464.924 393.501 464.517C394.812 464.11 395.989 463.431 397.031 462.481C398.069 461.53 398.885 460.423 399.474 459.154C400.062 457.888 400.446 456.622 400.628 455.353L403.615 437.703C403.796 436.617 403.932 435.509 404.022 434.376C404.112 433.246 404.135 432.136 404.091 431.05Z" fill="white" stroke="#282828" stroke-width="0.976199" stroke-linejoin="round"/>
</svg>
